<svg xmlns="http://www.w3.org/2000/svg" xmlns:xlink="http://www.w3.org/1999/xlink" width="500" zoomAndPan="magnify" viewBox="0 0 375 374.999991" height="500" preserveAspectRatio="xMidYMid meet" version="1.0"><defs><g/><clipPath id="dbed78009b"><path d="M 129.246094 101 L 245.496094 101 L 245.496094 207 L 129.246094 207 Z M 129.246094 101 " clip-rule="nonzero"/></clipPath><clipPath id="7e0c613247"><path d="M 186.539062 102.367188 C 192.878906 100.050781 200.445312 101.695312 205.210938 106.496094 C 216.734375 117.992188 228.234375 129.535156 239.757812 141.035156 C 243.042969 144.300781 245.082031 148.777344 245.3125 153.410156 C 245.496094 158.742188 243.042969 163.980469 239.15625 167.574219 C 227.703125 178.980469 216.363281 190.453125 204.886719 201.835938 C 199.171875 207.351562 189.339844 208.675781 182.929688 203.691406 C 182.90625 199.519531 183.855469 195.300781 185.820312 191.613281 C 187.742188 187.996094 191.351562 185.191406 195.492188 184.796875 C 198.710938 184.359375 201.765625 185.816406 204.957031 185.726562 C 207.203125 185.816406 209.769531 185.238281 211.066406 183.246094 C 212.0625 181.296875 211.390625 179.027344 211.992188 176.988281 C 212.800781 176.082031 213.84375 175.410156 214.792969 174.667969 C 214.535156 173.878906 214.214844 173.117188 213.957031 172.351562 C 216.179688 170.867188 215.070312 168.246094 215.183594 166.070312 C 216.644531 164.816406 219.027344 164.65625 219.996094 162.871094 C 219.953125 160.503906 217.9375 158.859375 216.804688 156.957031 C 215.09375 154.269531 212.777344 151.140625 214.191406 147.824219 C 215.972656 142.285156 215.371094 136.097656 212.640625 130.972656 C 209.957031 125.433594 204.910156 121.332031 199.402344 118.828125 C 193.710938 116.371094 187.535156 115.1875 181.355469 114.886719 C 177.652344 114.699219 174.019531 115.605469 170.410156 116.253906 C 172.746094 113.566406 175.363281 111.152344 177.863281 108.582031 C 180.335938 105.960938 183.066406 103.457031 186.539062 102.367188 Z M 137.644531 123.8125 C 134.613281 126.523438 134.9375 131.667969 138.015625 134.21875 C 142.804688 138.878906 147.363281 143.769531 152.269531 148.3125 C 152.316406 144.601562 152.5 140.871094 152.847656 137.1875 C 154.605469 128.75 160.277344 121.238281 168.003906 117.367188 C 165.875 115.117188 163.722656 112.871094 161.503906 110.714844 C 160.042969 109.300781 158.171875 108 156.042969 108.1875 C 153.613281 108.117188 151.621094 109.71875 150.027344 111.363281 C 145.929688 115.558594 141.742188 119.636719 137.644531 123.8125 Z M 171.035156 130.046875 C 169.878906 131.25 168.257812 132.574219 168.769531 134.472656 C 169.925781 136.628906 172.007812 138.113281 173.652344 139.898438 C 174.761719 140.917969 176.078125 142.585938 177.792969 141.820312 C 179.875 140.523438 181.425781 138.578125 183.207031 136.90625 C 184.226562 135.796875 185.730469 134.519531 185.128906 132.828125 C 183.625 130.554688 181.496094 128.792969 179.597656 126.871094 C 178.578125 125.988281 177.121094 124.597656 175.757812 125.6875 C 173.953125 126.917969 172.5625 128.585938 171.035156 130.046875 Z M 131.839844 150.492188 C 131.003906 151.417969 129.824219 152.253906 129.6875 153.597656 C 129.246094 156.402344 132.277344 157.839844 133.804688 159.71875 C 135.539062 161.15625 137.136719 164.167969 139.796875 163.21875 C 142.203125 161.757812 143.917969 159.4375 145.953125 157.539062 C 147.015625 156.355469 148.730469 154.757812 147.757812 153.019531 C 145.929688 150.515625 143.546875 148.453125 141.347656 146.273438 C 140.238281 145.066406 138.316406 144.394531 136.929688 145.554688 C 135.054688 146.992188 133.550781 148.867188 131.839844 150.492188 Z M 162.730469 149.519531 C 158.5625 153.621094 154.492188 157.816406 150.304688 161.917969 C 148.867188 163.308594 147.410156 164.980469 147.386719 167.113281 C 147.039062 169.429688 147.988281 171.746094 149.679688 173.347656 C 153.101562 176.800781 156.621094 180.183594 160 183.6875 C 161.457031 185.144531 162.84375 186.746094 164.535156 187.972656 C 167.265625 189.992188 171.359375 189.550781 173.695312 187.140625 C 178.347656 182.527344 182.953125 177.867188 187.582031 173.277344 C 190.402344 170.613281 190.65625 165.675781 187.789062 162.9375 C 183.300781 158.371094 178.765625 153.828125 174.230469 149.332031 C 172.355469 147.410156 169.625 145.925781 166.894531 146.757812 C 165.296875 147.199219 163.933594 148.335938 162.730469 149.519531 Z M 162.730469 149.519531 " clip-rule="nonzero"/></clipPath><linearGradient x1="24.31781" gradientTransform="matrix(0.231389, 0, 0, 0.231804, 129.640229, 101.325658)" y1="-29.46724" x2="488.453501" gradientUnits="userSpaceOnUse" y2="474.381087" id="c2eda093a9"><stop stop-opacity="1" stop-color="rgb(0%, 8.999634%, 62.69989%)" offset="0"/><stop stop-opacity="1" stop-color="rgb(0%, 8.999634%, 62.69989%)" offset="0.25"/><stop stop-opacity="1" stop-color="rgb(0%, 9.028625%, 62.705994%)" offset="0.3125"/><stop stop-opacity="1" stop-color="rgb(0%, 9.368896%, 62.783813%)" offset="0.316406"/><stop stop-opacity="1" stop-color="rgb(0%, 9.680176%, 62.854004%)" offset="0.320312"/><stop stop-opacity="1" stop-color="rgb(0%, 9.989929%, 62.924194%)" offset="0.324219"/><stop stop-opacity="1" stop-color="rgb(0%, 10.299683%, 62.995911%)" offset="0.328125"/><stop stop-opacity="1" stop-color="rgb(0%, 10.609436%, 63.066101%)" offset="0.332031"/><stop stop-opacity="1" stop-color="rgb(0%, 10.920715%, 63.137817%)" offset="0.335938"/><stop stop-opacity="1" stop-color="rgb(0%, 11.230469%, 63.208008%)" offset="0.339844"/><stop stop-opacity="1" stop-color="rgb(0%, 11.540222%, 63.278198%)" offset="0.34375"/><stop stop-opacity="1" stop-color="rgb(0%, 11.849976%, 63.348389%)" offset="0.347656"/><stop stop-opacity="1" stop-color="rgb(0%, 12.161255%, 63.420105%)" offset="0.351563"/><stop stop-opacity="1" stop-color="rgb(0%, 12.471008%, 63.490295%)" offset="0.355469"/><stop stop-opacity="1" stop-color="rgb(0%, 12.780762%, 63.562012%)" offset="0.359375"/><stop stop-opacity="1" stop-color="rgb(0%, 13.090515%, 63.632202%)" offset="0.363281"/><stop stop-opacity="1" stop-color="rgb(0%, 13.400269%, 63.702393%)" offset="0.367188"/><stop stop-opacity="1" stop-color="rgb(0%, 13.710022%, 63.772583%)" offset="0.371094"/><stop stop-opacity="1" stop-color="rgb(0%, 14.021301%, 63.844299%)" offset="0.375"/><stop stop-opacity="1" stop-color="rgb(0%, 14.331055%, 63.91449%)" offset="0.378906"/><stop stop-opacity="1" stop-color="rgb(0%, 14.640808%, 63.986206%)" offset="0.382812"/><stop stop-opacity="1" stop-color="rgb(0%, 14.950562%, 64.056396%)" offset="0.386719"/><stop stop-opacity="1" stop-color="rgb(0%, 15.261841%, 64.128113%)" offset="0.390625"/><stop stop-opacity="1" stop-color="rgb(0%, 15.571594%, 64.198303%)" offset="0.394531"/><stop stop-opacity="1" stop-color="rgb(0%, 15.881348%, 64.268494%)" offset="0.398438"/><stop stop-opacity="1" stop-color="rgb(0%, 16.191101%, 64.338684%)" offset="0.402344"/><stop stop-opacity="1" stop-color="rgb(0%, 16.50238%, 64.4104%)" offset="0.40625"/><stop stop-opacity="1" stop-color="rgb(0%, 16.812134%, 64.480591%)" offset="0.410156"/><stop stop-opacity="1" stop-color="rgb(0%, 17.121887%, 64.552307%)" offset="0.414063"/><stop stop-opacity="1" stop-color="rgb(0%, 17.431641%, 64.622498%)" offset="0.417969"/><stop stop-opacity="1" stop-color="rgb(0%, 17.74292%, 64.692688%)" offset="0.421875"/><stop stop-opacity="1" stop-color="rgb(0%, 18.052673%, 64.762878%)" offset="0.425781"/><stop stop-opacity="1" stop-color="rgb(0%, 18.362427%, 64.834595%)" offset="0.429688"/><stop stop-opacity="1" stop-color="rgb(0%, 18.67218%, 64.904785%)" offset="0.433594"/><stop stop-opacity="1" stop-color="rgb(0%, 18.983459%, 64.976501%)" offset="0.4375"/><stop stop-opacity="1" stop-color="rgb(0%, 19.293213%, 65.046692%)" offset="0.441406"/><stop stop-opacity="1" stop-color="rgb(0%, 19.602966%, 65.118408%)" offset="0.445313"/><stop stop-opacity="1" stop-color="rgb(0%, 19.91272%, 65.188599%)" offset="0.449219"/><stop stop-opacity="1" stop-color="rgb(0%, 20.223999%, 65.258789%)" offset="0.453125"/><stop stop-opacity="1" stop-color="rgb(0%, 20.533752%, 65.328979%)" offset="0.457031"/><stop stop-opacity="1" stop-color="rgb(0%, 20.843506%, 65.400696%)" offset="0.460938"/><stop stop-opacity="1" stop-color="rgb(0%, 21.153259%, 65.470886%)" offset="0.464844"/><stop stop-opacity="1" stop-color="rgb(0%, 21.463013%, 65.542603%)" offset="0.46875"/><stop stop-opacity="1" stop-color="rgb(0%, 21.772766%, 65.612793%)" offset="0.472656"/><stop stop-opacity="1" stop-color="rgb(0%, 22.084045%, 65.682983%)" offset="0.476562"/><stop stop-opacity="1" stop-color="rgb(0%, 22.393799%, 65.753174%)" offset="0.480469"/><stop stop-opacity="1" stop-color="rgb(0%, 22.703552%, 65.82489%)" offset="0.484375"/><stop stop-opacity="1" stop-color="rgb(0%, 23.013306%, 65.895081%)" offset="0.488281"/><stop stop-opacity="1" stop-color="rgb(0%, 23.324585%, 65.966797%)" offset="0.492188"/><stop stop-opacity="1" stop-color="rgb(0%, 23.634338%, 66.036987%)" offset="0.496094"/><stop stop-opacity="1" stop-color="rgb(0%, 23.944092%, 66.107178%)" offset="0.5"/><stop stop-opacity="1" stop-color="rgb(0%, 24.253845%, 66.177368%)" offset="0.503906"/><stop stop-opacity="1" stop-color="rgb(0%, 24.565125%, 66.249084%)" offset="0.507813"/><stop stop-opacity="1" stop-color="rgb(0%, 24.874878%, 66.319275%)" offset="0.511719"/><stop stop-opacity="1" stop-color="rgb(0%, 25.184631%, 66.390991%)" offset="0.515625"/><stop stop-opacity="1" stop-color="rgb(0%, 25.494385%, 66.461182%)" offset="0.519531"/><stop stop-opacity="1" stop-color="rgb(0%, 25.805664%, 66.532898%)" offset="0.523438"/><stop stop-opacity="1" stop-color="rgb(0%, 26.115417%, 66.603088%)" offset="0.527344"/><stop stop-opacity="1" stop-color="rgb(0%, 26.425171%, 66.673279%)" offset="0.53125"/><stop stop-opacity="1" stop-color="rgb(0%, 26.734924%, 66.743469%)" offset="0.535156"/><stop stop-opacity="1" stop-color="rgb(0%, 27.046204%, 66.815186%)" offset="0.539062"/><stop stop-opacity="1" stop-color="rgb(0%, 27.355957%, 66.885376%)" offset="0.542969"/><stop stop-opacity="1" stop-color="rgb(0%, 27.66571%, 66.957092%)" offset="0.546875"/><stop stop-opacity="1" stop-color="rgb(0%, 27.975464%, 67.027283%)" offset="0.550781"/><stop stop-opacity="1" stop-color="rgb(0%, 28.286743%, 67.097473%)" offset="0.554688"/><stop stop-opacity="1" stop-color="rgb(0%, 28.596497%, 67.167664%)" offset="0.558594"/><stop stop-opacity="1" stop-color="rgb(0%, 28.90625%, 67.23938%)" offset="0.5625"/><stop stop-opacity="1" stop-color="rgb(0%, 29.216003%, 67.30957%)" offset="0.566406"/><stop stop-opacity="1" stop-color="rgb(0%, 29.525757%, 67.381287%)" offset="0.570313"/><stop stop-opacity="1" stop-color="rgb(0%, 29.83551%, 67.451477%)" offset="0.574219"/><stop stop-opacity="1" stop-color="rgb(0%, 30.14679%, 67.521667%)" offset="0.578125"/><stop stop-opacity="1" stop-color="rgb(0%, 30.456543%, 67.591858%)" offset="0.582031"/><stop stop-opacity="1" stop-color="rgb(0%, 30.766296%, 67.663574%)" offset="0.585938"/><stop stop-opacity="1" stop-color="rgb(0%, 31.07605%, 67.733765%)" offset="0.589844"/><stop stop-opacity="1" stop-color="rgb(0%, 31.387329%, 67.805481%)" offset="0.59375"/><stop stop-opacity="1" stop-color="rgb(0%, 31.697083%, 67.875671%)" offset="0.597656"/><stop stop-opacity="1" stop-color="rgb(0%, 32.006836%, 67.947388%)" offset="0.601563"/><stop stop-opacity="1" stop-color="rgb(0%, 32.316589%, 68.017578%)" offset="0.605469"/><stop stop-opacity="1" stop-color="rgb(0%, 32.627869%, 68.087769%)" offset="0.609375"/><stop stop-opacity="1" stop-color="rgb(0%, 32.937622%, 68.157959%)" offset="0.613281"/><stop stop-opacity="1" stop-color="rgb(0%, 33.247375%, 68.229675%)" offset="0.617188"/><stop stop-opacity="1" stop-color="rgb(0%, 33.557129%, 68.299866%)" offset="0.621094"/><stop stop-opacity="1" stop-color="rgb(0%, 33.868408%, 68.371582%)" offset="0.625"/><stop stop-opacity="1" stop-color="rgb(0%, 34.178162%, 68.441772%)" offset="0.628906"/><stop stop-opacity="1" stop-color="rgb(0%, 34.487915%, 68.511963%)" offset="0.632812"/><stop stop-opacity="1" stop-color="rgb(0%, 34.797668%, 68.582153%)" offset="0.636719"/><stop stop-opacity="1" stop-color="rgb(0%, 35.108948%, 68.65387%)" offset="0.640625"/><stop stop-opacity="1" stop-color="rgb(0%, 35.418701%, 68.72406%)" offset="0.644531"/><stop stop-opacity="1" stop-color="rgb(0%, 35.728455%, 68.795776%)" offset="0.648438"/><stop stop-opacity="1" stop-color="rgb(0%, 36.038208%, 68.865967%)" offset="0.652344"/><stop stop-opacity="1" stop-color="rgb(0%, 36.347961%, 68.936157%)" offset="0.65625"/><stop stop-opacity="1" stop-color="rgb(0%, 36.657715%, 69.006348%)" offset="0.660156"/><stop stop-opacity="1" stop-color="rgb(0%, 36.968994%, 69.078064%)" offset="0.664062"/><stop stop-opacity="1" stop-color="rgb(0%, 37.278748%, 69.148254%)" offset="0.667969"/><stop stop-opacity="1" stop-color="rgb(0%, 37.588501%, 69.219971%)" offset="0.671875"/><stop stop-opacity="1" stop-color="rgb(0%, 37.898254%, 69.290161%)" offset="0.675781"/><stop stop-opacity="1" stop-color="rgb(0%, 38.209534%, 69.361877%)" offset="0.679688"/><stop stop-opacity="1" stop-color="rgb(0%, 38.519287%, 69.432068%)" offset="0.683594"/><stop stop-opacity="1" stop-color="rgb(0%, 38.829041%, 69.502258%)" offset="0.6875"/><stop stop-opacity="1" stop-color="rgb(0%, 39.138794%, 69.572449%)" offset="0.691406"/><stop stop-opacity="1" stop-color="rgb(0%, 39.450073%, 69.644165%)" offset="0.695312"/><stop stop-opacity="1" stop-color="rgb(0%, 39.759827%, 69.714355%)" offset="0.699219"/><stop stop-opacity="1" stop-color="rgb(0%, 40.06958%, 69.786072%)" offset="0.703125"/><stop stop-opacity="1" stop-color="rgb(0%, 40.379333%, 69.856262%)" offset="0.707031"/><stop stop-opacity="1" stop-color="rgb(0%, 40.690613%, 69.926453%)" offset="0.710937"/><stop stop-opacity="1" stop-color="rgb(0%, 41.000366%, 69.996643%)" offset="0.714844"/><stop stop-opacity="1" stop-color="rgb(0%, 41.31012%, 70.068359%)" offset="0.71875"/><stop stop-opacity="1" stop-color="rgb(0%, 41.619873%, 70.13855%)" offset="0.722656"/><stop stop-opacity="1" stop-color="rgb(0%, 41.931152%, 70.210266%)" offset="0.726562"/><stop stop-opacity="1" stop-color="rgb(0%, 42.240906%, 70.280457%)" offset="0.730469"/><stop stop-opacity="1" stop-color="rgb(0%, 42.550659%, 70.350647%)" offset="0.734375"/><stop stop-opacity="1" stop-color="rgb(0%, 42.860413%, 70.420837%)" offset="0.738281"/><stop stop-opacity="1" stop-color="rgb(0%, 43.171692%, 70.492554%)" offset="0.742188"/><stop stop-opacity="1" stop-color="rgb(0%, 43.481445%, 70.562744%)" offset="0.746094"/><stop stop-opacity="1" stop-color="rgb(0%, 43.791199%, 70.63446%)" offset="0.75"/><stop stop-opacity="1" stop-color="rgb(0%, 44.100952%, 70.704651%)" offset="0.753906"/><stop stop-opacity="1" stop-color="rgb(0%, 44.410706%, 70.776367%)" offset="0.757812"/><stop stop-opacity="1" stop-color="rgb(0%, 44.720459%, 70.846558%)" offset="0.761719"/><stop stop-opacity="1" stop-color="rgb(0%, 45.031738%, 70.916748%)" offset="0.765625"/><stop stop-opacity="1" stop-color="rgb(0%, 45.341492%, 70.986938%)" offset="0.769531"/><stop stop-opacity="1" stop-color="rgb(0%, 45.651245%, 71.058655%)" offset="0.773438"/><stop stop-opacity="1" stop-color="rgb(0%, 45.960999%, 71.128845%)" offset="0.777344"/><stop stop-opacity="1" stop-color="rgb(0%, 46.272278%, 71.200562%)" offset="0.78125"/><stop stop-opacity="1" stop-color="rgb(0%, 46.582031%, 71.270752%)" offset="0.785156"/><stop stop-opacity="1" stop-color="rgb(0%, 46.891785%, 71.340942%)" offset="0.789063"/><stop stop-opacity="1" stop-color="rgb(0%, 47.201538%, 71.411133%)" offset="0.792969"/><stop stop-opacity="1" stop-color="rgb(0%, 47.512817%, 71.482849%)" offset="0.796875"/><stop stop-opacity="1" stop-color="rgb(0%, 47.822571%, 71.55304%)" offset="0.800781"/><stop stop-opacity="1" stop-color="rgb(0%, 48.132324%, 71.624756%)" offset="0.804688"/><stop stop-opacity="1" stop-color="rgb(0%, 48.442078%, 71.694946%)" offset="0.808594"/><stop stop-opacity="1" stop-color="rgb(0%, 48.753357%, 71.765137%)" offset="0.8125"/><stop stop-opacity="1" stop-color="rgb(0%, 49.06311%, 71.835327%)" offset="0.816406"/><stop stop-opacity="1" stop-color="rgb(0%, 49.372864%, 71.907043%)" offset="0.820312"/><stop stop-opacity="1" stop-color="rgb(0%, 49.682617%, 71.977234%)" offset="0.824219"/><stop stop-opacity="1" stop-color="rgb(0%, 49.993896%, 72.04895%)" offset="0.828125"/><stop stop-opacity="1" stop-color="rgb(0%, 50.30365%, 72.119141%)" offset="0.832031"/><stop stop-opacity="1" stop-color="rgb(0%, 50.613403%, 72.190857%)" offset="0.835938"/><stop stop-opacity="1" stop-color="rgb(0%, 50.923157%, 72.261047%)" offset="0.839844"/><stop stop-opacity="1" stop-color="rgb(0%, 51.234436%, 72.331238%)" offset="0.84375"/><stop stop-opacity="1" stop-color="rgb(0%, 51.544189%, 72.401428%)" offset="0.847656"/><stop stop-opacity="1" stop-color="rgb(0%, 51.853943%, 72.473145%)" offset="0.851562"/><stop stop-opacity="1" stop-color="rgb(0%, 52.163696%, 72.543335%)" offset="0.855469"/><stop stop-opacity="1" stop-color="rgb(0%, 52.47345%, 72.615051%)" offset="0.859375"/><stop stop-opacity="1" stop-color="rgb(0%, 52.783203%, 72.685242%)" offset="0.863281"/><stop stop-opacity="1" stop-color="rgb(0%, 53.094482%, 72.755432%)" offset="0.867188"/><stop stop-opacity="1" stop-color="rgb(0%, 53.404236%, 72.825623%)" offset="0.871094"/><stop stop-opacity="1" stop-color="rgb(0%, 53.713989%, 72.897339%)" offset="0.875"/><stop stop-opacity="1" stop-color="rgb(0%, 54.023743%, 72.967529%)" offset="0.878906"/><stop stop-opacity="1" stop-color="rgb(0%, 54.335022%, 73.039246%)" offset="0.882813"/><stop stop-opacity="1" stop-color="rgb(0%, 54.644775%, 73.109436%)" offset="0.886719"/><stop stop-opacity="1" stop-color="rgb(0%, 54.954529%, 73.179626%)" offset="0.890625"/><stop stop-opacity="1" stop-color="rgb(0%, 55.264282%, 73.249817%)" offset="0.894531"/><stop stop-opacity="1" stop-color="rgb(0%, 55.575562%, 73.321533%)" offset="0.898438"/><stop stop-opacity="1" stop-color="rgb(0%, 55.885315%, 73.391724%)" offset="0.902344"/><stop stop-opacity="1" stop-color="rgb(0%, 56.195068%, 73.46344%)" offset="0.90625"/><stop stop-opacity="1" stop-color="rgb(0%, 56.504822%, 73.53363%)" offset="0.910156"/><stop stop-opacity="1" stop-color="rgb(0%, 56.816101%, 73.605347%)" offset="0.914062"/><stop stop-opacity="1" stop-color="rgb(0%, 57.125854%, 73.675537%)" offset="0.917969"/><stop stop-opacity="1" stop-color="rgb(0%, 57.435608%, 73.745728%)" offset="0.921875"/><stop stop-opacity="1" stop-color="rgb(0%, 57.745361%, 73.815918%)" offset="0.925781"/><stop stop-opacity="1" stop-color="rgb(0%, 58.056641%, 73.887634%)" offset="0.929687"/><stop stop-opacity="1" stop-color="rgb(0%, 58.366394%, 73.957825%)" offset="0.933594"/><stop stop-opacity="1" stop-color="rgb(0%, 58.676147%, 74.029541%)" offset="0.9375"/><stop stop-opacity="1" stop-color="rgb(0%, 58.985901%, 74.099731%)" offset="0.941406"/><stop stop-opacity="1" stop-color="rgb(0%, 59.295654%, 74.169922%)" offset="0.945312"/><stop stop-opacity="1" stop-color="rgb(0%, 59.605408%, 74.240112%)" offset="0.949219"/><stop stop-opacity="1" stop-color="rgb(0%, 59.916687%, 74.311829%)" offset="0.953125"/><stop stop-opacity="1" stop-color="rgb(0%, 60.22644%, 74.382019%)" offset="0.957031"/><stop stop-opacity="1" stop-color="rgb(0%, 60.536194%, 74.453735%)" offset="0.960938"/><stop stop-opacity="1" stop-color="rgb(0%, 60.845947%, 74.523926%)" offset="0.964844"/><stop stop-opacity="1" stop-color="rgb(0%, 61.157227%, 74.594116%)" offset="0.96875"/><stop stop-opacity="1" stop-color="rgb(0%, 61.46698%, 74.664307%)" offset="0.972656"/><stop stop-opacity="1" stop-color="rgb(0%, 61.776733%, 74.736023%)" offset="0.976563"/><stop stop-opacity="1" stop-color="rgb(0%, 62.086487%, 74.806213%)" offset="0.980469"/><stop stop-opacity="1" stop-color="rgb(0%, 62.397766%, 74.87793%)" offset="0.984375"/><stop stop-opacity="1" stop-color="rgb(0%, 62.70752%, 74.94812%)" offset="0.988281"/><stop stop-opacity="1" stop-color="rgb(0%, 63.017273%, 75.019836%)" offset="0.992188"/><stop stop-opacity="1" stop-color="rgb(0%, 63.327026%, 75.090027%)" offset="0.996094"/><stop stop-opacity="1" stop-color="rgb(0%, 63.638306%, 75.160217%)" offset="1"/></linearGradient></defs><rect x="-37.5" width="450" fill="#ffffff" y="-37.499999" height="449.999989" fill-opacity="1"/><rect x="-37.5" width="450" fill="#ffffff" y="-37.499999" height="449.999989" fill-opacity="1"/><g clip-path="url(#dbed78009b)"><g clip-path="url(#7e0c613247)"><path fill="url(#c2eda093a9)" d="M 129.246094 100.050781 L 129.246094 208.675781 L 245.496094 208.675781 L 245.496094 100.050781 Z M 129.246094 100.050781 " fill-rule="nonzero"/></g></g><g fill="#000000" fill-opacity="1"><g transform="translate(98.793682, 245.422923)"><g><path d="M 13.6875 -19.78125 C 15.3125 -19.78125 16.484375 -19.265625 17.203125 -18.234375 C 17.910156 -17.273438 18.265625 -15.828125 18.265625 -13.890625 L 18.265625 -14.046875 C 18.265625 -12.140625 17.910156 -10.691406 17.203125 -9.703125 C 16.484375 -8.691406 15.3125 -8.1875 13.6875 -8.1875 L 5.46875 -8.15625 L 5.46875 -0.8125 C 5.46875 -0.445312 5.378906 -0.210938 5.203125 -0.109375 C 5.023438 -0.015625 4.890625 0.03125 4.796875 0.03125 L 2.59375 0.03125 C 2.5 0.03125 2.363281 -0.015625 2.1875 -0.109375 C 2.007812 -0.210938 1.921875 -0.445312 1.921875 -0.8125 L 1.921875 -10.890625 C 1.921875 -11.265625 2.007812 -11.492188 2.1875 -11.578125 C 2.363281 -11.671875 2.5 -11.71875 2.59375 -11.71875 L 13.0625 -11.71875 C 13.664062 -11.71875 14.085938 -11.890625 14.328125 -12.234375 C 14.585938 -12.585938 14.71875 -13.164062 14.71875 -13.96875 C 14.71875 -14.769531 14.585938 -15.347656 14.328125 -15.703125 C 14.085938 -16.046875 13.664062 -16.21875 13.0625 -16.21875 L 2.59375 -16.21875 C 2.5 -16.21875 2.363281 -16.257812 2.1875 -16.34375 C 2.007812 -16.4375 1.921875 -16.671875 1.921875 -17.046875 L 1.921875 -18.9375 C 1.921875 -19.320312 2.007812 -19.554688 2.1875 -19.640625 C 2.363281 -19.734375 2.5 -19.78125 2.59375 -19.78125 Z M 13.6875 -19.78125 "/></g></g></g><g fill="#000000" fill-opacity="1"><g transform="translate(120.177721, 245.422923)"><g><path d="M 18.5 -19.78125 C 18.613281 -19.78125 18.753906 -19.734375 18.921875 -19.640625 C 19.085938 -19.554688 19.171875 -19.328125 19.171875 -18.953125 L 19.171875 -7.515625 C 19.171875 -6.835938 19.144531 -6.210938 19.09375 -5.640625 C 19.050781 -5.066406 18.972656 -4.546875 18.859375 -4.078125 C 18.640625 -3.085938 18.296875 -2.304688 17.828125 -1.734375 C 17.367188 -1.117188 16.742188 -0.671875 15.953125 -0.390625 C 15.234375 -0.128906 14.332031 0 13.25 0 L 7.84375 0 C 6.757812 0 5.859375 -0.128906 5.140625 -0.390625 C 4.765625 -0.523438 4.414062 -0.703125 4.09375 -0.921875 C 3.78125 -1.148438 3.507812 -1.421875 3.28125 -1.734375 C 2.789062 -2.335938 2.441406 -3.117188 2.234375 -4.078125 C 2.117188 -4.546875 2.035156 -5.066406 1.984375 -5.640625 C 1.941406 -6.210938 1.921875 -6.835938 1.921875 -7.515625 L 1.921875 -18.953125 C 1.921875 -19.328125 2.007812 -19.554688 2.1875 -19.640625 C 2.363281 -19.734375 2.503906 -19.78125 2.609375 -19.78125 L 4.796875 -19.78125 C 4.910156 -19.78125 5.050781 -19.734375 5.21875 -19.640625 C 5.382812 -19.554688 5.46875 -19.328125 5.46875 -18.953125 L 5.46875 -7.125 C 5.46875 -6.769531 5.476562 -6.4375 5.5 -6.125 C 5.53125 -5.8125 5.5625 -5.546875 5.59375 -5.328125 C 5.6875 -4.898438 5.820312 -4.539062 6 -4.25 C 6.1875 -4.007812 6.425781 -3.832031 6.71875 -3.71875 C 6.875 -3.664062 7.054688 -3.625 7.265625 -3.59375 C 7.472656 -3.5625 7.707031 -3.546875 7.96875 -3.546875 L 13.15625 -3.546875 C 13.40625 -3.546875 13.632812 -3.5625 13.84375 -3.59375 C 14.050781 -3.625 14.238281 -3.664062 14.40625 -3.71875 C 14.6875 -3.832031 14.925781 -4.007812 15.125 -4.25 C 15.195312 -4.375 15.269531 -4.523438 15.34375 -4.703125 C 15.414062 -4.890625 15.46875 -5.097656 15.5 -5.328125 C 15.53125 -5.546875 15.554688 -5.8125 15.578125 -6.125 C 15.609375 -6.4375 15.625 -6.769531 15.625 -7.125 L 15.625 -18.953125 C 15.625 -19.328125 15.707031 -19.554688 15.875 -19.640625 C 16.039062 -19.734375 16.179688 -19.78125 16.296875 -19.78125 Z M 18.5 -19.78125 "/></g></g></g><g fill="#000000" fill-opacity="1"><g transform="translate(142.473763, 245.422923)"><g><path d="M 18.53125 -13.65625 C 18.53125 -12.132812 18.128906 -10.972656 17.328125 -10.171875 C 18.203125 -9.367188 18.640625 -8.175781 18.640625 -6.59375 L 18.640625 -4.984375 C 18.640625 -4.617188 18.625 -4.265625 18.59375 -3.921875 C 18.5625 -3.578125 18.515625 -3.253906 18.453125 -2.953125 C 18.390625 -2.648438 18.304688 -2.363281 18.203125 -2.09375 C 18.097656 -1.832031 17.96875 -1.59375 17.8125 -1.375 C 17.539062 -0.9375 17.140625 -0.59375 16.609375 -0.34375 C 16.128906 -0.09375 15.53125 0.03125 14.8125 0.03125 L 4.015625 0.03125 C 3.640625 0.03125 3.285156 -0.0625 2.953125 -0.25 C 2.628906 -0.4375 2.375 -0.691406 2.1875 -1.015625 C 2.050781 -1.234375 1.960938 -1.476562 1.921875 -1.75 L 1.9375 -18.140625 C 1.96875 -18.234375 2.003906 -18.332031 2.046875 -18.4375 C 2.085938 -18.539062 2.132812 -18.644531 2.1875 -18.75 C 2.570312 -19.375 3.125 -19.707031 3.84375 -19.75 L 3.84375 -19.78125 L 14.453125 -19.78125 C 15.921875 -19.78125 16.96875 -19.367188 17.59375 -18.546875 C 18.21875 -17.765625 18.53125 -16.582031 18.53125 -15 Z M 5.453125 -3.671875 C 5.453125 -3.617188 5.453125 -3.582031 5.453125 -3.5625 C 5.460938 -3.550781 5.46875 -3.546875 5.46875 -3.546875 L 13.828125 -3.546875 C 14.304688 -3.546875 14.640625 -3.648438 14.828125 -3.859375 C 15.023438 -4.085938 15.125 -4.472656 15.125 -5.015625 L 15.125 -6.640625 C 15.125 -7.160156 15.019531 -7.546875 14.8125 -7.796875 C 14.582031 -8.054688 14.164062 -8.1875 13.5625 -8.1875 L 8.90625 -8.1875 C 8.695312 -8.1875 8.507812 -8.257812 8.34375 -8.40625 C 8.1875 -8.5625 8.109375 -8.75 8.109375 -8.96875 L 8.109375 -10.9375 C 8.109375 -11.164062 8.1875 -11.351562 8.34375 -11.5 C 8.507812 -11.65625 8.695312 -11.734375 8.90625 -11.734375 L 13.5625 -11.734375 C 14.1875 -11.734375 14.59375 -11.847656 14.78125 -12.078125 C 14.988281 -12.296875 15.09375 -12.644531 15.09375 -13.125 L 15.09375 -14.78125 C 15.09375 -15.3125 15 -15.679688 14.8125 -15.890625 C 14.613281 -16.109375 14.285156 -16.21875 13.828125 -16.21875 L 5.5 -16.21875 C 5.46875 -16.21875 5.453125 -16.171875 5.453125 -16.078125 Z M 5.453125 -3.671875 "/></g></g></g><g fill="#000000" fill-opacity="1"><g transform="translate(164.241809, 245.422923)"><g><path d="M 15.765625 -3.546875 C 15.878906 -3.546875 16.019531 -3.5 16.1875 -3.40625 C 16.351562 -3.3125 16.4375 -3.082031 16.4375 -2.71875 L 16.4375 -0.8125 C 16.4375 -0.445312 16.351562 -0.210938 16.1875 -0.109375 C 16.019531 -0.015625 15.878906 0.03125 15.765625 0.03125 L 7.84375 0.03125 C 6.789062 0.03125 5.894531 -0.109375 5.15625 -0.390625 C 4.40625 -0.640625 3.78125 -1.085938 3.28125 -1.734375 C 2.820312 -2.304688 2.476562 -3.085938 2.25 -4.078125 C 2.03125 -5.054688 1.921875 -6.203125 1.921875 -7.515625 L 1.921875 -18.9375 C 1.921875 -19.320312 2.007812 -19.554688 2.1875 -19.640625 C 2.363281 -19.734375 2.503906 -19.78125 2.609375 -19.78125 L 4.828125 -19.78125 C 4.921875 -19.78125 5.054688 -19.734375 5.234375 -19.640625 C 5.410156 -19.554688 5.5 -19.320312 5.5 -18.9375 L 5.5 -7.109375 C 5.5 -6.753906 5.503906 -6.421875 5.515625 -6.109375 C 5.535156 -5.804688 5.566406 -5.535156 5.609375 -5.296875 C 5.679688 -4.867188 5.820312 -4.519531 6.03125 -4.25 C 6.1875 -3.988281 6.414062 -3.8125 6.71875 -3.71875 C 7.039062 -3.601562 7.457031 -3.546875 7.96875 -3.546875 Z M 15.765625 -3.546875 "/></g></g></g><g fill="#000000" fill-opacity="1"><g transform="translate(183.801844, 245.422923)"><g><path d="M 4.796875 -19.78125 C 4.890625 -19.78125 5.023438 -19.726562 5.203125 -19.625 C 5.378906 -19.53125 5.46875 -19.300781 5.46875 -18.9375 L 5.46875 -0.8125 C 5.46875 -0.445312 5.378906 -0.210938 5.203125 -0.109375 C 5.023438 -0.015625 4.890625 0.03125 4.796875 0.03125 L 2.59375 0.03125 C 2.5 0.03125 2.363281 -0.015625 2.1875 -0.109375 C 2.007812 -0.210938 1.921875 -0.445312 1.921875 -0.8125 L 1.921875 -18.9375 C 1.921875 -19.300781 2.007812 -19.53125 2.1875 -19.625 C 2.363281 -19.726562 2.5 -19.78125 2.59375 -19.78125 Z M 4.796875 -19.78125 "/></g></g></g><g fill="#000000" fill-opacity="1"><g transform="translate(192.393862, 245.422923)"><g><path d="M 13.515625 -11.8125 C 14.765625 -11.8125 15.71875 -11.367188 16.375 -10.484375 C 16.988281 -9.617188 17.296875 -8.40625 17.296875 -6.84375 L 17.296875 -4.734375 C 17.296875 -3.347656 16.992188 -2.21875 16.390625 -1.34375 C 15.765625 -0.445312 14.789062 0 13.46875 0 L 2.640625 0 C 2.523438 0 2.378906 -0.0390625 2.203125 -0.125 C 2.023438 -0.21875 1.9375 -0.445312 1.9375 -0.8125 L 1.9375 -2.734375 C 1.9375 -3.097656 2.023438 -3.320312 2.203125 -3.40625 C 2.378906 -3.5 2.523438 -3.546875 2.640625 -3.546875 L 12.890625 -3.546875 C 13.097656 -3.546875 13.242188 -3.582031 13.328125 -3.65625 C 13.421875 -3.726562 13.488281 -3.796875 13.53125 -3.859375 C 13.675781 -4.097656 13.75 -4.4375 13.75 -4.875 L 13.75 -6.9375 C 13.75 -7.53125 13.648438 -7.894531 13.453125 -8.03125 C 13.265625 -8.175781 13.082031 -8.25 12.90625 -8.25 L 5.71875 -8.25 C 5.21875 -8.25 4.707031 -8.3125 4.1875 -8.4375 C 3.664062 -8.570312 3.222656 -8.890625 2.859375 -9.390625 C 2.234375 -10.265625 1.921875 -11.539062 1.921875 -13.21875 L 1.921875 -15.046875 C 1.921875 -16.453125 2.234375 -17.585938 2.859375 -18.453125 C 3.484375 -19.335938 4.453125 -19.78125 5.765625 -19.78125 L 16.109375 -19.78125 C 16.203125 -19.78125 16.335938 -19.734375 16.515625 -19.640625 C 16.691406 -19.554688 16.78125 -19.328125 16.78125 -18.953125 L 16.78125 -17.046875 C 16.78125 -16.671875 16.691406 -16.4375 16.515625 -16.34375 C 16.335938 -16.257812 16.203125 -16.21875 16.109375 -16.21875 L 6.34375 -16.21875 C 6.132812 -16.21875 5.984375 -16.1875 5.890625 -16.125 C 5.804688 -16.0625 5.738281 -15.988281 5.6875 -15.90625 C 5.5625 -15.65625 5.5 -15.320312 5.5 -14.90625 L 5.5 -13.125 C 5.5 -12.53125 5.585938 -12.160156 5.765625 -12.015625 C 5.953125 -11.878906 6.132812 -11.8125 6.3125 -11.8125 Z M 13.515625 -11.8125 "/></g></g></g><g fill="#000000" fill-opacity="1"><g transform="translate(212.817902, 245.422923)"><g><path d="M 17.421875 -19.78125 C 17.535156 -19.78125 17.679688 -19.726562 17.859375 -19.625 C 18.035156 -19.53125 18.125 -19.300781 18.125 -18.9375 L 18.125 -0.8125 C 18.125 -0.445312 18.035156 -0.210938 17.859375 -0.109375 C 17.679688 -0.015625 17.535156 0.03125 17.421875 0.03125 L 15.21875 0.03125 C 15.125 0.03125 14.988281 -0.015625 14.8125 -0.109375 C 14.644531 -0.210938 14.5625 -0.445312 14.5625 -0.8125 L 14.5625 -8.203125 L 5.46875 -8.203125 L 5.46875 -0.8125 C 5.46875 -0.445312 5.382812 -0.210938 5.21875 -0.109375 C 5.050781 -0.015625 4.910156 0.03125 4.796875 0.03125 L 2.609375 0.03125 C 2.503906 0.03125 2.363281 -0.015625 2.1875 -0.109375 C 2.007812 -0.210938 1.921875 -0.445312 1.921875 -0.8125 L 1.921875 -18.9375 C 1.921875 -19.300781 2.007812 -19.53125 2.1875 -19.625 C 2.363281 -19.726562 2.503906 -19.78125 2.609375 -19.78125 L 4.796875 -19.78125 C 4.910156 -19.78125 5.050781 -19.726562 5.21875 -19.625 C 5.382812 -19.53125 5.46875 -19.300781 5.46875 -18.9375 L 5.46875 -11.765625 L 14.5625 -11.765625 L 14.5625 -18.9375 C 14.5625 -19.300781 14.644531 -19.53125 14.8125 -19.625 C 14.988281 -19.726562 15.125 -19.78125 15.21875 -19.78125 Z M 17.421875 -19.78125 "/></g></g></g><g fill="#000000" fill-opacity="1"><g transform="translate(234.057941, 245.422923)"><g><path d="M 16.34375 -4.296875 C 16.457031 -4.296875 16.601562 -4.25 16.78125 -4.15625 C 16.957031 -4.070312 17.046875 -3.847656 17.046875 -3.484375 L 17.046875 -0.84375 C 17.046875 -0.46875 16.957031 -0.238281 16.78125 -0.15625 C 16.601562 -0.0703125 16.457031 -0.03125 16.34375 -0.03125 L 7.828125 -0.03125 C 7.296875 -0.03125 6.804688 -0.0625 6.359375 -0.125 C 5.910156 -0.1875 5.503906 -0.289062 5.140625 -0.4375 C 4.347656 -0.707031 3.722656 -1.144531 3.265625 -1.75 C 2.785156 -2.375 2.441406 -3.160156 2.234375 -4.109375 C 2.148438 -4.503906 2.078125 -4.941406 2.015625 -5.421875 C 1.960938 -5.898438 1.929688 -6.421875 1.921875 -6.984375 L 1.921875 -7.109375 L 1.96875 -10.125 C 2.019531 -10.300781 2.109375 -10.503906 2.234375 -10.734375 C 2.585938 -11.347656 3.128906 -11.679688 3.859375 -11.734375 L 16.25 -11.765625 C 16.34375 -11.765625 16.476562 -11.71875 16.65625 -11.625 C 16.832031 -11.539062 16.921875 -11.3125 16.921875 -10.9375 L 16.921875 -9.046875 C 16.921875 -8.679688 16.832031 -8.445312 16.65625 -8.34375 C 16.476562 -8.25 16.34375 -8.203125 16.25 -8.203125 L 5.515625 -8.203125 C 5.515625 -8.203125 5.507812 -8.113281 5.5 -7.9375 C 5.5 -7.769531 5.492188 -7.570312 5.484375 -7.34375 C 5.472656 -7.125 5.46875 -6.925781 5.46875 -6.75 C 5.46875 -6.570312 5.46875 -6.484375 5.46875 -6.484375 C 5.488281 -6.421875 5.5 -6.351562 5.5 -6.28125 C 5.5 -6.207031 5.503906 -6.140625 5.515625 -6.078125 C 5.578125 -5.628906 5.710938 -5.265625 5.921875 -4.984375 C 6.117188 -4.742188 6.359375 -4.570312 6.640625 -4.46875 C 6.816406 -4.414062 7.003906 -4.375 7.203125 -4.34375 C 7.410156 -4.3125 7.640625 -4.296875 7.890625 -4.296875 Z M 4.03125 -11.546875 Z M 16.375 -19.828125 C 16.46875 -19.828125 16.601562 -19.773438 16.78125 -19.671875 C 16.957031 -19.578125 17.046875 -19.347656 17.046875 -18.984375 L 17.046875 -17.09375 C 17.046875 -16.71875 16.957031 -16.484375 16.78125 -16.390625 C 16.601562 -16.296875 16.46875 -16.25 16.375 -16.25 L 2.5625 -16.265625 C 2.46875 -16.265625 2.335938 -16.304688 2.171875 -16.390625 C 2.003906 -16.484375 1.921875 -16.71875 1.921875 -17.09375 L 1.921875 -18.953125 C 1.921875 -19.335938 2.003906 -19.578125 2.171875 -19.671875 C 2.335938 -19.773438 2.46875 -19.828125 2.5625 -19.828125 Z M 16.375 -19.828125 "/></g></g></g><g fill="#000000" fill-opacity="1"><g transform="translate(254.217978, 245.422923)"><g><path d="M 18.28125 -14.046875 L 18.28125 -13.890625 C 18.28125 -13.910156 18.28125 -13.921875 18.28125 -13.921875 C 18.28125 -13.929688 18.28125 -13.945312 18.28125 -13.96875 C 18.28125 -13.976562 18.28125 -13.988281 18.28125 -14 C 18.28125 -14.007812 18.28125 -14.023438 18.28125 -14.046875 Z M 18.75 -1.03125 C 18.84375 -0.90625 18.875 -0.710938 18.84375 -0.453125 C 18.789062 -0.128906 18.601562 0.03125 18.28125 0.03125 L 15.640625 0.03125 C 15.441406 0.03125 15.273438 -0.0195312 15.140625 -0.125 C 15.097656 -0.15625 15.054688 -0.203125 15.015625 -0.265625 C 14.972656 -0.328125 14.925781 -0.390625 14.875 -0.453125 L 10.53125 -8.15625 L 5.46875 -8.15625 L 5.46875 -0.8125 C 5.46875 -0.445312 5.382812 -0.210938 5.21875 -0.109375 C 5.050781 -0.015625 4.910156 0.03125 4.796875 0.03125 L 2.609375 0.03125 C 2.503906 0.03125 2.363281 -0.015625 2.1875 -0.109375 C 2.007812 -0.210938 1.921875 -0.445312 1.921875 -0.8125 L 1.921875 -10.890625 C 1.921875 -11.265625 2.007812 -11.492188 2.1875 -11.578125 C 2.363281 -11.671875 2.503906 -11.71875 2.609375 -11.71875 L 13.0625 -11.71875 C 13.664062 -11.71875 14.085938 -11.890625 14.328125 -12.234375 C 14.585938 -12.585938 14.71875 -13.164062 14.71875 -13.96875 C 14.71875 -14.769531 14.585938 -15.347656 14.328125 -15.703125 C 14.085938 -16.046875 13.664062 -16.21875 13.0625 -16.21875 L 2.609375 -16.21875 C 2.503906 -16.21875 2.363281 -16.257812 2.1875 -16.34375 C 2.007812 -16.4375 1.921875 -16.671875 1.921875 -17.046875 L 1.921875 -18.9375 C 1.921875 -19.320312 2.007812 -19.554688 2.1875 -19.640625 C 2.363281 -19.734375 2.503906 -19.78125 2.609375 -19.78125 L 13.6875 -19.78125 C 15.332031 -19.78125 16.515625 -19.265625 17.234375 -18.234375 C 17.921875 -17.242188 18.269531 -15.820312 18.28125 -13.96875 C 18.269531 -12.113281 17.921875 -10.691406 17.234375 -9.703125 C 16.617188 -8.867188 15.722656 -8.378906 14.546875 -8.234375 Z M 18.75 -1.03125 "/></g></g></g><g fill="#000000" fill-opacity="1"><g transform="translate(140.32528, 270.41254)"><g><path d="M 9.578125 -1.015625 C 9.617188 -0.898438 9.640625 -0.800781 9.640625 -0.71875 C 9.640625 -0.519531 9.566406 -0.347656 9.421875 -0.203125 C 9.285156 -0.0664062 9.117188 0 8.921875 0 C 8.773438 0 8.640625 -0.0351562 8.515625 -0.109375 C 8.390625 -0.191406 8.300781 -0.304688 8.25 -0.453125 L 7.46875 -2.40625 L 2.4375 -2.40625 L 1.640625 -0.453125 C 1.578125 -0.304688 1.484375 -0.191406 1.359375 -0.109375 C 1.234375 -0.0351562 1.101562 0 0.96875 0 C 0.757812 0 0.585938 -0.0703125 0.453125 -0.21875 C 0.316406 -0.363281 0.25 -0.535156 0.25 -0.734375 C 0.25 -0.828125 0.273438 -0.929688 0.328125 -1.046875 L 4.25 -10.4375 C 4.394531 -10.769531 4.625 -10.9375 4.9375 -10.9375 C 5.28125 -10.9375 5.507812 -10.769531 5.625 -10.4375 Z M 2.921875 -3.609375 L 6.96875 -3.609375 L 4.96875 -8.59375 Z M 2.921875 -3.609375 "/></g></g></g><g fill="#000000" fill-opacity="1"><g transform="translate(150.161786, 270.41254)"><g><path d="M 4.046875 0.0625 C 3.410156 0.0625 2.8125 -0.0351562 2.25 -0.234375 C 1.6875 -0.429688 1.25 -0.691406 0.9375 -1.015625 C 0.8125 -1.128906 0.75 -1.269531 0.75 -1.4375 C 0.75 -1.664062 0.84375 -1.847656 1.03125 -1.984375 C 1.207031 -2.117188 1.375 -2.1875 1.53125 -2.1875 C 1.71875 -2.1875 1.894531 -2.101562 2.0625 -1.9375 C 2.238281 -1.738281 2.503906 -1.566406 2.859375 -1.421875 C 3.210938 -1.273438 3.585938 -1.203125 3.984375 -1.203125 C 4.515625 -1.203125 4.925781 -1.289062 5.21875 -1.46875 C 5.519531 -1.644531 5.671875 -1.882812 5.671875 -2.1875 C 5.671875 -2.476562 5.523438 -2.71875 5.234375 -2.90625 C 4.941406 -3.09375 4.453125 -3.253906 3.765625 -3.390625 C 1.972656 -3.734375 1.078125 -4.46875 1.078125 -5.59375 C 1.078125 -6.050781 1.210938 -6.4375 1.484375 -6.75 C 1.753906 -7.070312 2.109375 -7.3125 2.546875 -7.46875 C 2.984375 -7.632812 3.453125 -7.71875 3.953125 -7.71875 C 4.554688 -7.71875 5.097656 -7.617188 5.578125 -7.421875 C 6.054688 -7.222656 6.4375 -6.953125 6.71875 -6.609375 C 6.84375 -6.460938 6.90625 -6.3125 6.90625 -6.15625 C 6.90625 -6 6.820312 -5.851562 6.65625 -5.71875 C 6.5625 -5.644531 6.429688 -5.609375 6.265625 -5.609375 C 6.023438 -5.609375 5.804688 -5.695312 5.609375 -5.875 C 5.378906 -6.09375 5.132812 -6.242188 4.875 -6.328125 C 4.613281 -6.421875 4.296875 -6.46875 3.921875 -6.46875 C 3.492188 -6.46875 3.140625 -6.394531 2.859375 -6.25 C 2.585938 -6.101562 2.453125 -5.898438 2.453125 -5.640625 C 2.453125 -5.453125 2.5 -5.296875 2.59375 -5.171875 C 2.6875 -5.046875 2.863281 -4.925781 3.125 -4.8125 C 3.382812 -4.707031 3.757812 -4.609375 4.25 -4.515625 C 5.269531 -4.304688 5.992188 -4.019531 6.421875 -3.65625 C 6.847656 -3.289062 7.0625 -2.816406 7.0625 -2.234375 C 7.0625 -1.804688 6.941406 -1.414062 6.703125 -1.0625 C 6.472656 -0.71875 6.128906 -0.441406 5.671875 -0.234375 C 5.222656 -0.0351562 4.679688 0.0625 4.046875 0.0625 Z M 4.046875 0.0625 "/></g></g></g><g fill="#000000" fill-opacity="1"><g transform="translate(157.75954, 270.41254)"><g><path d="M 4.046875 0.0625 C 3.410156 0.0625 2.8125 -0.0351562 2.25 -0.234375 C 1.6875 -0.429688 1.25 -0.691406 0.9375 -1.015625 C 0.8125 -1.128906 0.75 -1.269531 0.75 -1.4375 C 0.75 -1.664062 0.84375 -1.847656 1.03125 -1.984375 C 1.207031 -2.117188 1.375 -2.1875 1.53125 -2.1875 C 1.71875 -2.1875 1.894531 -2.101562 2.0625 -1.9375 C 2.238281 -1.738281 2.503906 -1.566406 2.859375 -1.421875 C 3.210938 -1.273438 3.585938 -1.203125 3.984375 -1.203125 C 4.515625 -1.203125 4.925781 -1.289062 5.21875 -1.46875 C 5.519531 -1.644531 5.671875 -1.882812 5.671875 -2.1875 C 5.671875 -2.476562 5.523438 -2.71875 5.234375 -2.90625 C 4.941406 -3.09375 4.453125 -3.253906 3.765625 -3.390625 C 1.972656 -3.734375 1.078125 -4.46875 1.078125 -5.59375 C 1.078125 -6.050781 1.210938 -6.4375 1.484375 -6.75 C 1.753906 -7.070312 2.109375 -7.3125 2.546875 -7.46875 C 2.984375 -7.632812 3.453125 -7.71875 3.953125 -7.71875 C 4.554688 -7.71875 5.097656 -7.617188 5.578125 -7.421875 C 6.054688 -7.222656 6.4375 -6.953125 6.71875 -6.609375 C 6.84375 -6.460938 6.90625 -6.3125 6.90625 -6.15625 C 6.90625 -6 6.820312 -5.851562 6.65625 -5.71875 C 6.5625 -5.644531 6.429688 -5.609375 6.265625 -5.609375 C 6.023438 -5.609375 5.804688 -5.695312 5.609375 -5.875 C 5.378906 -6.09375 5.132812 -6.242188 4.875 -6.328125 C 4.613281 -6.421875 4.296875 -6.46875 3.921875 -6.46875 C 3.492188 -6.46875 3.140625 -6.394531 2.859375 -6.25 C 2.585938 -6.101562 2.453125 -5.898438 2.453125 -5.640625 C 2.453125 -5.453125 2.5 -5.296875 2.59375 -5.171875 C 2.6875 -5.046875 2.863281 -4.925781 3.125 -4.8125 C 3.382812 -4.707031 3.757812 -4.609375 4.25 -4.515625 C 5.269531 -4.304688 5.992188 -4.019531 6.421875 -3.65625 C 6.847656 -3.289062 7.0625 -2.816406 7.0625 -2.234375 C 7.0625 -1.804688 6.941406 -1.414062 6.703125 -1.0625 C 6.472656 -0.71875 6.128906 -0.441406 5.671875 -0.234375 C 5.222656 -0.0351562 4.679688 0.0625 4.046875 0.0625 Z M 4.046875 0.0625 "/></g></g></g><g fill="#000000" fill-opacity="1"><g transform="translate(165.357295, 270.41254)"><g><path d="M 2.109375 0 C 1.910156 0 1.742188 -0.0664062 1.609375 -0.203125 C 1.472656 -0.335938 1.40625 -0.507812 1.40625 -0.71875 L 1.40625 -6.9375 C 1.40625 -7.15625 1.472656 -7.328125 1.609375 -7.453125 C 1.742188 -7.585938 1.910156 -7.65625 2.109375 -7.65625 C 2.328125 -7.65625 2.5 -7.585938 2.625 -7.453125 C 2.757812 -7.328125 2.828125 -7.15625 2.828125 -6.9375 L 2.828125 -0.71875 C 2.828125 -0.507812 2.757812 -0.335938 2.625 -0.203125 C 2.5 -0.0664062 2.328125 0 2.109375 0 Z M 2.125 -8.90625 C 1.863281 -8.90625 1.644531 -8.992188 1.46875 -9.171875 C 1.289062 -9.359375 1.203125 -9.578125 1.203125 -9.828125 C 1.203125 -10.078125 1.289062 -10.289062 1.46875 -10.46875 C 1.644531 -10.65625 1.863281 -10.75 2.125 -10.75 C 2.375 -10.75 2.585938 -10.65625 2.765625 -10.46875 C 2.953125 -10.289062 3.046875 -10.078125 3.046875 -9.828125 C 3.046875 -9.578125 2.953125 -9.359375 2.765625 -9.171875 C 2.585938 -8.992188 2.375 -8.90625 2.125 -8.90625 Z M 2.125 -8.90625 "/></g></g></g><g fill="#000000" fill-opacity="1"><g transform="translate(169.582935, 270.41254)"><g><path d="M 4.046875 0.0625 C 3.410156 0.0625 2.8125 -0.0351562 2.25 -0.234375 C 1.6875 -0.429688 1.25 -0.691406 0.9375 -1.015625 C 0.8125 -1.128906 0.75 -1.269531 0.75 -1.4375 C 0.75 -1.664062 0.84375 -1.847656 1.03125 -1.984375 C 1.207031 -2.117188 1.375 -2.1875 1.53125 -2.1875 C 1.71875 -2.1875 1.894531 -2.101562 2.0625 -1.9375 C 2.238281 -1.738281 2.503906 -1.566406 2.859375 -1.421875 C 3.210938 -1.273438 3.585938 -1.203125 3.984375 -1.203125 C 4.515625 -1.203125 4.925781 -1.289062 5.21875 -1.46875 C 5.519531 -1.644531 5.671875 -1.882812 5.671875 -2.1875 C 5.671875 -2.476562 5.523438 -2.71875 5.234375 -2.90625 C 4.941406 -3.09375 4.453125 -3.253906 3.765625 -3.390625 C 1.972656 -3.734375 1.078125 -4.46875 1.078125 -5.59375 C 1.078125 -6.050781 1.210938 -6.4375 1.484375 -6.75 C 1.753906 -7.070312 2.109375 -7.3125 2.546875 -7.46875 C 2.984375 -7.632812 3.453125 -7.71875 3.953125 -7.71875 C 4.554688 -7.71875 5.097656 -7.617188 5.578125 -7.421875 C 6.054688 -7.222656 6.4375 -6.953125 6.71875 -6.609375 C 6.84375 -6.460938 6.90625 -6.3125 6.90625 -6.15625 C 6.90625 -6 6.820312 -5.851562 6.65625 -5.71875 C 6.5625 -5.644531 6.429688 -5.609375 6.265625 -5.609375 C 6.023438 -5.609375 5.804688 -5.695312 5.609375 -5.875 C 5.378906 -6.09375 5.132812 -6.242188 4.875 -6.328125 C 4.613281 -6.421875 4.296875 -6.46875 3.921875 -6.46875 C 3.492188 -6.46875 3.140625 -6.394531 2.859375 -6.25 C 2.585938 -6.101562 2.453125 -5.898438 2.453125 -5.640625 C 2.453125 -5.453125 2.5 -5.296875 2.59375 -5.171875 C 2.6875 -5.046875 2.863281 -4.925781 3.125 -4.8125 C 3.382812 -4.707031 3.757812 -4.609375 4.25 -4.515625 C 5.269531 -4.304688 5.992188 -4.019531 6.421875 -3.65625 C 6.847656 -3.289062 7.0625 -2.816406 7.0625 -2.234375 C 7.0625 -1.804688 6.941406 -1.414062 6.703125 -1.0625 C 6.472656 -0.71875 6.128906 -0.441406 5.671875 -0.234375 C 5.222656 -0.0351562 4.679688 0.0625 4.046875 0.0625 Z M 4.046875 0.0625 "/></g></g></g><g fill="#000000" fill-opacity="1"><g transform="translate(177.180689, 270.41254)"><g><path d="M 4.515625 -1.40625 C 4.691406 -1.40625 4.835938 -1.335938 4.953125 -1.203125 C 5.066406 -1.078125 5.125 -0.910156 5.125 -0.703125 C 5.125 -0.492188 5.046875 -0.320312 4.890625 -0.1875 C 4.734375 -0.0625 4.535156 0 4.296875 0 L 4.046875 0 C 3.585938 0 3.164062 -0.117188 2.78125 -0.359375 C 2.40625 -0.597656 2.109375 -0.921875 1.890625 -1.328125 C 1.679688 -1.742188 1.578125 -2.207031 1.578125 -2.71875 L 1.578125 -6.171875 L 0.9375 -6.171875 C 0.738281 -6.171875 0.578125 -6.226562 0.453125 -6.34375 C 0.335938 -6.457031 0.28125 -6.597656 0.28125 -6.765625 C 0.28125 -6.953125 0.335938 -7.097656 0.453125 -7.203125 C 0.578125 -7.316406 0.738281 -7.375 0.9375 -7.375 L 1.578125 -7.375 L 1.578125 -9.390625 C 1.578125 -9.597656 1.640625 -9.765625 1.765625 -9.890625 C 1.898438 -10.023438 2.070312 -10.09375 2.28125 -10.09375 C 2.488281 -10.09375 2.65625 -10.023438 2.78125 -9.890625 C 2.914062 -9.765625 2.984375 -9.597656 2.984375 -9.390625 L 2.984375 -7.375 L 4.171875 -7.375 C 4.367188 -7.375 4.523438 -7.316406 4.640625 -7.203125 C 4.765625 -7.097656 4.828125 -6.953125 4.828125 -6.765625 C 4.828125 -6.597656 4.765625 -6.457031 4.640625 -6.34375 C 4.523438 -6.226562 4.367188 -6.171875 4.171875 -6.171875 L 2.984375 -6.171875 L 2.984375 -2.71875 C 2.984375 -2.34375 3.082031 -2.03125 3.28125 -1.78125 C 3.488281 -1.53125 3.742188 -1.40625 4.046875 -1.40625 Z M 4.515625 -1.40625 "/></g></g></g><g fill="#000000" fill-opacity="1"><g transform="translate(182.791556, 270.41254)"><g/></g></g><g fill="#000000" fill-opacity="1"><g transform="translate(186.891264, 270.41254)"><g><path d="M 9.390625 -7.65625 C 9.585938 -7.65625 9.734375 -7.601562 9.828125 -7.5 C 9.929688 -7.394531 9.984375 -7.253906 9.984375 -7.078125 C 9.984375 -6.929688 9.957031 -6.796875 9.90625 -6.671875 L 7.84375 -0.46875 C 7.789062 -0.332031 7.703125 -0.21875 7.578125 -0.125 C 7.460938 -0.0390625 7.332031 0 7.1875 0 C 7.019531 0 6.875 -0.0390625 6.75 -0.125 C 6.625 -0.21875 6.546875 -0.332031 6.515625 -0.46875 L 5.140625 -5.546875 L 3.703125 -0.46875 C 3.648438 -0.332031 3.5625 -0.21875 3.4375 -0.125 C 3.3125 -0.0390625 3.175781 0 3.03125 0 C 2.875 0 2.734375 -0.0390625 2.609375 -0.125 C 2.484375 -0.21875 2.398438 -0.332031 2.359375 -0.46875 L 0.28125 -6.671875 C 0.238281 -6.796875 0.21875 -6.925781 0.21875 -7.0625 C 0.21875 -7.457031 0.414062 -7.65625 0.8125 -7.65625 C 0.988281 -7.65625 1.132812 -7.601562 1.25 -7.5 C 1.363281 -7.394531 1.460938 -7.234375 1.546875 -7.015625 L 3.046875 -2.296875 L 4.484375 -7.125 C 4.523438 -7.28125 4.601562 -7.40625 4.71875 -7.5 C 4.84375 -7.601562 5 -7.65625 5.1875 -7.65625 C 5.363281 -7.65625 5.507812 -7.601562 5.625 -7.5 C 5.738281 -7.40625 5.816406 -7.28125 5.859375 -7.125 L 7.125 -2.203125 L 8.671875 -7.015625 C 8.796875 -7.441406 9.035156 -7.65625 9.390625 -7.65625 Z M 9.390625 -7.65625 "/></g></g></g><g fill="#000000" fill-opacity="1"><g transform="translate(197.077581, 270.41254)"><g><path d="M 2.109375 0 C 1.910156 0 1.742188 -0.0664062 1.609375 -0.203125 C 1.472656 -0.335938 1.40625 -0.507812 1.40625 -0.71875 L 1.40625 -6.9375 C 1.40625 -7.15625 1.472656 -7.328125 1.609375 -7.453125 C 1.742188 -7.585938 1.910156 -7.65625 2.109375 -7.65625 C 2.328125 -7.65625 2.5 -7.585938 2.625 -7.453125 C 2.757812 -7.328125 2.828125 -7.15625 2.828125 -6.9375 L 2.828125 -0.71875 C 2.828125 -0.507812 2.757812 -0.335938 2.625 -0.203125 C 2.5 -0.0664062 2.328125 0 2.109375 0 Z M 2.125 -8.90625 C 1.863281 -8.90625 1.644531 -8.992188 1.46875 -9.171875 C 1.289062 -9.359375 1.203125 -9.578125 1.203125 -9.828125 C 1.203125 -10.078125 1.289062 -10.289062 1.46875 -10.46875 C 1.644531 -10.65625 1.863281 -10.75 2.125 -10.75 C 2.375 -10.75 2.585938 -10.65625 2.765625 -10.46875 C 2.953125 -10.289062 3.046875 -10.078125 3.046875 -9.828125 C 3.046875 -9.578125 2.953125 -9.359375 2.765625 -9.171875 C 2.585938 -8.992188 2.375 -8.90625 2.125 -8.90625 Z M 2.125 -8.90625 "/></g></g></g><g fill="#000000" fill-opacity="1"><g transform="translate(201.30322, 270.41254)"><g><path d="M 4.515625 -1.40625 C 4.691406 -1.40625 4.835938 -1.335938 4.953125 -1.203125 C 5.066406 -1.078125 5.125 -0.910156 5.125 -0.703125 C 5.125 -0.492188 5.046875 -0.320312 4.890625 -0.1875 C 4.734375 -0.0625 4.535156 0 4.296875 0 L 4.046875 0 C 3.585938 0 3.164062 -0.117188 2.78125 -0.359375 C 2.40625 -0.597656 2.109375 -0.921875 1.890625 -1.328125 C 1.679688 -1.742188 1.578125 -2.207031 1.578125 -2.71875 L 1.578125 -6.171875 L 0.9375 -6.171875 C 0.738281 -6.171875 0.578125 -6.226562 0.453125 -6.34375 C 0.335938 -6.457031 0.28125 -6.597656 0.28125 -6.765625 C 0.28125 -6.953125 0.335938 -7.097656 0.453125 -7.203125 C 0.578125 -7.316406 0.738281 -7.375 0.9375 -7.375 L 1.578125 -7.375 L 1.578125 -9.390625 C 1.578125 -9.597656 1.640625 -9.765625 1.765625 -9.890625 C 1.898438 -10.023438 2.070312 -10.09375 2.28125 -10.09375 C 2.488281 -10.09375 2.65625 -10.023438 2.78125 -9.890625 C 2.914062 -9.765625 2.984375 -9.597656 2.984375 -9.390625 L 2.984375 -7.375 L 4.171875 -7.375 C 4.367188 -7.375 4.523438 -7.316406 4.640625 -7.203125 C 4.765625 -7.097656 4.828125 -6.953125 4.828125 -6.765625 C 4.828125 -6.597656 4.765625 -6.457031 4.640625 -6.34375 C 4.523438 -6.226562 4.367188 -6.171875 4.171875 -6.171875 L 2.984375 -6.171875 L 2.984375 -2.71875 C 2.984375 -2.34375 3.082031 -2.03125 3.28125 -1.78125 C 3.488281 -1.53125 3.742188 -1.40625 4.046875 -1.40625 Z M 4.515625 -1.40625 "/></g></g></g><g fill="#000000" fill-opacity="1"><g transform="translate(206.914086, 270.41254)"><g><path d="M 5.0625 -7.734375 C 5.707031 -7.734375 6.285156 -7.59375 6.796875 -7.3125 C 7.316406 -7.03125 7.71875 -6.617188 8 -6.078125 C 8.289062 -5.546875 8.4375 -4.898438 8.4375 -4.140625 L 8.4375 -0.703125 C 8.4375 -0.492188 8.367188 -0.320312 8.234375 -0.1875 C 8.097656 -0.0507812 7.929688 0.015625 7.734375 0.015625 C 7.523438 0.015625 7.351562 -0.0507812 7.21875 -0.1875 C 7.082031 -0.320312 7.015625 -0.492188 7.015625 -0.703125 L 7.015625 -4.140625 C 7.015625 -4.898438 6.8125 -5.472656 6.40625 -5.859375 C 6 -6.242188 5.457031 -6.4375 4.78125 -6.4375 C 4.394531 -6.4375 4.039062 -6.359375 3.71875 -6.203125 C 3.394531 -6.046875 3.140625 -5.832031 2.953125 -5.5625 C 2.773438 -5.289062 2.6875 -4.984375 2.6875 -4.640625 L 2.6875 -0.703125 C 2.6875 -0.492188 2.617188 -0.320312 2.484375 -0.1875 C 2.359375 -0.0507812 2.1875 0.015625 1.96875 0.015625 C 1.769531 0.015625 1.601562 -0.0507812 1.46875 -0.1875 C 1.332031 -0.320312 1.265625 -0.492188 1.265625 -0.703125 L 1.265625 -10.21875 C 1.265625 -10.4375 1.332031 -10.609375 1.46875 -10.734375 C 1.601562 -10.867188 1.769531 -10.9375 1.96875 -10.9375 C 2.1875 -10.9375 2.359375 -10.867188 2.484375 -10.734375 C 2.617188 -10.609375 2.6875 -10.4375 2.6875 -10.21875 L 2.6875 -6.796875 C 2.988281 -7.085938 3.34375 -7.316406 3.75 -7.484375 C 4.164062 -7.648438 4.601562 -7.734375 5.0625 -7.734375 Z M 5.0625 -7.734375 "/></g></g></g><g fill="#000000" fill-opacity="1"><g transform="translate(216.470749, 270.41254)"><g/></g></g><g fill="#000000" fill-opacity="1"><g transform="translate(220.570457, 270.41254)"><g><path d="M 9.578125 -1.015625 C 9.617188 -0.898438 9.640625 -0.800781 9.640625 -0.71875 C 9.640625 -0.519531 9.566406 -0.347656 9.421875 -0.203125 C 9.285156 -0.0664062 9.117188 0 8.921875 0 C 8.773438 0 8.640625 -0.0351562 8.515625 -0.109375 C 8.390625 -0.191406 8.300781 -0.304688 8.25 -0.453125 L 7.46875 -2.40625 L 2.4375 -2.40625 L 1.640625 -0.453125 C 1.578125 -0.304688 1.484375 -0.191406 1.359375 -0.109375 C 1.234375 -0.0351562 1.101562 0 0.96875 0 C 0.757812 0 0.585938 -0.0703125 0.453125 -0.21875 C 0.316406 -0.363281 0.25 -0.535156 0.25 -0.734375 C 0.25 -0.828125 0.273438 -0.929688 0.328125 -1.046875 L 4.25 -10.4375 C 4.394531 -10.769531 4.625 -10.9375 4.9375 -10.9375 C 5.28125 -10.9375 5.507812 -10.769531 5.625 -10.4375 Z M 2.921875 -3.609375 L 6.96875 -3.609375 L 4.96875 -8.59375 Z M 2.921875 -3.609375 "/></g></g></g><g fill="#000000" fill-opacity="1"><g transform="translate(230.406962, 270.41254)"><g><path d="M 2.125 0 C 1.914062 0 1.742188 -0.0664062 1.609375 -0.203125 C 1.472656 -0.347656 1.40625 -0.523438 1.40625 -0.734375 L 1.40625 -10.203125 C 1.40625 -10.421875 1.472656 -10.597656 1.609375 -10.734375 C 1.742188 -10.867188 1.914062 -10.9375 2.125 -10.9375 C 2.34375 -10.9375 2.519531 -10.867188 2.65625 -10.734375 C 2.789062 -10.597656 2.859375 -10.421875 2.859375 -10.203125 L 2.859375 -0.734375 C 2.859375 -0.523438 2.789062 -0.347656 2.65625 -0.203125 C 2.519531 -0.0664062 2.34375 0 2.125 0 Z M 2.125 0 "/></g></g></g></svg>